<svg xmlns="http://www.w3.org/2000/svg" width="512" height="512" viewBox="0 0 512 512">
  <defs>
    <linearGradient id="bg" x1="0" y1="0" x2="1" y2="1">
      <stop offset="0" stop-color="#e8558f" />
      <stop offset="1" stop-color="#ff7fb3" />
    </linearGradient>
    <filter id="shadow" x="-20%" y="-20%" width="140%" height="140%">
      <feDropShadow dx="0" dy="8" stdDeviation="10" flood-color="#000000" flood-opacity="0.18" />
    </filter>
  </defs>

  <rect width="512" height="512" rx="112" fill="url(#bg)" />

  <g filter="url(#shadow)">
    <rect x="108" y="120" width="296" height="264" rx="44" fill="#ffffff" opacity="0.94" />
    <rect x="108" y="120" width="296" height="78" rx="44" fill="#ffffff" opacity="0.94" />
    <rect x="108" y="180" width="296" height="20" fill="#e8558f" opacity="0.18" />
    <rect x="164" y="98" width="40" height="70" rx="20" fill="#ffffff" opacity="0.94" />
    <rect x="308" y="98" width="40" height="70" rx="20" fill="#ffffff" opacity="0.94" />

    <g fill="#e8558f" opacity="0.22">
      <rect x="150" y="222" width="52" height="44" rx="14" />
      <rect x="230" y="222" width="52" height="44" rx="14" />
      <rect x="310" y="222" width="52" height="44" rx="14" />
      <rect x="150" y="288" width="52" height="44" rx="14" />
      <rect x="230" y="288" width="52" height="44" rx="14" />
      <rect x="310" y="288" width="52" height="44" rx="14" />
    </g>
  </g>

  <g transform="translate(0 0)" filter="url(#shadow)">
    <g transform="translate(320 296)">
      <rect x="-14" y="-6" width="38" height="86" rx="16" fill="#ffffff" opacity="0.96" />
      <path d="M5 88c0 12 9 22 22 22s22-10 22-22V26c0-14-10-24-22-24S5 12 5 26v62z" fill="#ffffff" opacity="0.96" transform="translate(-6 -26)"/>
      <path d="M-10 42c10-18 38-38 62-42 16-2 28 8 22 22-9 21-31 43-52 54-16 8-36-1-32-34z" fill="#ffffff" opacity="0.96"/>
      <path d="M44 6c12 12-4 36-16 50-10 12-22 18-32 16 5-18 18-44 48-66z" fill="#e8558f" opacity="0.92"/>
      <path d="M-2 72c8 8 20 10 32 6" stroke="#e8558f" stroke-width="10" stroke-linecap="round" opacity="0.55" fill="none"/>
    </g>
  </g>
</svg>
